<svg xmlns="http://www.w3.org/2000/svg" width="107" height="40" viewBox="0 0 107 40" fill="none">
<path d="M31.816 25.2583L31.036 31.6783H25.516V39.3583H17.656V31.6783H1.03602L0.0160157 25.2583L19.696 0.958259H25.516V25.2583H31.816ZM17.656 13.4383L8.41602 25.2583H17.656V13.4383ZM35.6902 18.1183C35.6902 14.6783 36.4102 11.6383 37.8502 8.99826C39.2902 6.35826 41.2702 4.27826 43.7902 2.75826C46.3102 1.23826 49.1902 0.478258 52.4302 0.478258C55.6702 0.478258 58.5302 1.23826 61.0102 2.75826C63.5302 4.27826 65.4902 6.35826 66.8902 8.99826C68.3302 11.5983 69.0502 14.5983 69.0502 17.9983C69.0502 21.4783 68.3302 24.5783 66.8902 27.2983C65.4502 29.9783 63.4702 32.0983 60.9502 33.6583C58.4702 35.2183 55.6102 35.9983 52.3702 35.9983C49.1702 35.9983 46.3102 35.2383 43.7902 33.7183C41.2702 32.1583 39.2902 30.0383 37.8502 27.3583C36.4102 24.6383 35.6902 21.5583 35.6902 18.1183ZM42.8302 17.9383C42.8302 20.1383 43.2302 22.0983 44.0302 23.8183C44.8702 25.5383 46.0102 26.8983 47.4502 27.8983C48.9302 28.8583 50.5902 29.3383 52.4302 29.3383C54.3102 29.3383 55.9702 28.8583 57.4102 27.8983C58.8502 26.9383 59.9702 25.6183 60.7702 23.9383C61.6102 22.2583 62.0302 20.3583 62.0302 18.2383C62.0302 16.0783 61.6102 14.1583 60.7702 12.4783C59.9302 10.7983 58.7902 9.47826 57.3502 8.51826C55.9102 7.55826 54.2502 7.07826 52.3702 7.07826C50.5302 7.07826 48.8902 7.55826 47.4502 8.51826C46.0102 9.43826 44.8702 10.7183 44.0302 12.3583C43.2302 13.9583 42.8302 15.8183 42.8302 17.9383ZM73.277 18.1183C73.277 14.6783 73.997 11.6383 75.437 8.99826C76.877 6.35826 78.857 4.27826 81.377 2.75826C83.897 1.23826 86.777 0.478258 90.017 0.478258C93.257 0.478258 96.117 1.23826 98.597 2.75826C101.117 4.27826 103.077 6.35826 104.477 8.99826C105.917 11.5983 106.637 14.5983 106.637 17.9983C106.637 21.4783 105.917 24.5783 104.477 27.2983C103.037 29.9783 101.057 32.0983 98.537 33.6583C96.057 35.2183 93.197 35.9983 89.957 35.9983C86.757 35.9983 83.897 35.2383 81.377 33.7183C78.857 32.1583 76.877 30.0383 75.437 27.3583C73.997 24.6383 73.277 21.5583 73.277 18.1183ZM80.417 17.9383C80.417 20.1383 80.817 22.0983 81.617 23.8183C82.457 25.5383 83.597 26.8983 85.037 27.8983C86.517 28.8583 88.177 29.3383 90.017 29.3383C91.897 29.3383 93.557 28.8583 94.997 27.8983C96.437 26.9383 97.557 25.6183 98.357 23.9383C99.197 22.2583 99.617 20.3583 99.617 18.2383C99.617 16.0783 99.197 14.1583 98.357 12.4783C97.517 10.7983 96.377 9.47826 94.937 8.51826C93.497 7.55826 91.837 7.07826 89.957 7.07826C88.117 7.07826 86.477 7.55826 85.037 8.51826C83.597 9.43826 82.457 10.7183 81.617 12.3583C80.817 13.9583 80.417 15.8183 80.417 17.9383Z" fill="url(#paint0_linear_12_80)"/>
<defs>
<linearGradient id="paint0_linear_12_80" x1="53.916" y1="-17.7817" x2="53.916" y2="54.2183" gradientUnits="userSpaceOnUse">
<stop stop-color="#F00000"/>
<stop offset="1" stop-color="#9109F7"/>
</linearGradient>
</defs>
</svg>