<svg xmlns="http://www.w3.org/2000/svg" width="93" height="48" viewBox="0 0 93 48" fill="none">
<path d="M9.85305 30.8583H2.95305L4.03305 9.25826H25.993L25.153 15.5583H10.633L10.273 22.6983C10.913 22.3783 11.613 22.1583 12.373 22.0383C13.133 21.8783 13.913 21.7983 14.713 21.7983C17.713 21.7983 20.193 22.3783 22.153 23.5383C24.113 24.6983 25.593 26.2383 26.593 28.1583C27.593 30.0783 28.093 32.1583 28.093 34.3983C28.093 36.9983 27.493 39.3183 26.293 41.3583C25.093 43.3583 23.393 44.9183 21.193 46.0383C18.993 47.1983 16.373 47.7783 13.333 47.7783C11.093 47.7783 8.81305 47.3983 6.49305 46.6383C4.17305 45.8783 2.13305 45.0183 0.373047 44.0583L4.21305 38.5983C5.81305 39.4783 7.31305 40.1383 8.71305 40.5783C10.113 41.0183 11.713 41.2383 13.513 41.2383C15.633 41.2383 17.413 40.6383 18.853 39.4383C20.293 38.1983 21.013 36.5183 21.013 34.3983C21.013 32.4383 20.433 30.8983 19.273 29.7783C18.153 28.6183 16.733 28.0383 15.013 28.0383C13.613 28.0383 12.473 28.3583 11.593 28.9983C10.713 29.5983 10.133 30.2183 9.85305 30.8583ZM44.6962 8.47826C47.4962 8.47826 49.8162 8.95826 51.6562 9.91826C53.5362 10.8783 54.9362 12.1583 55.8562 13.7583C56.8162 15.3183 57.2962 17.0383 57.2962 18.9183C57.2962 20.1183 57.0562 21.2583 56.5762 22.3383C56.0962 23.4183 55.4762 24.3583 54.7162 25.1583C53.9962 25.9183 53.2362 26.4783 52.4362 26.8383C53.1962 26.9983 53.9962 27.4983 54.8362 28.3383C55.7162 29.1383 56.4562 30.1983 57.0562 31.5183C57.6962 32.7983 58.0162 34.2783 58.0162 35.9583C58.0162 38.1583 57.4362 40.1583 56.2762 41.9583C55.1162 43.7583 53.4762 45.1783 51.3562 46.2183C49.2362 47.2583 46.7362 47.7783 43.8562 47.7783C41.6562 47.7783 39.3762 47.3783 37.0162 46.5783C34.6962 45.8183 32.6162 44.9583 30.7762 43.9983L34.7362 38.7783C36.3362 39.7383 37.8362 40.4383 39.2362 40.8783C40.6362 41.2783 42.2162 41.4783 43.9762 41.4783C45.1762 41.4783 46.2962 41.2583 47.3362 40.8183C48.3762 40.3783 49.2162 39.7583 49.8562 38.9583C50.5362 38.1183 50.8762 37.1383 50.8762 36.0183C50.8762 34.1783 50.1562 32.7183 48.7162 31.6383C47.3162 30.5583 45.0362 30.0183 41.8762 30.0183H39.3562L38.2762 23.9583H42.2362C44.6762 23.9583 46.5962 23.5183 47.9962 22.6383C49.4362 21.7183 50.1562 20.5183 50.1562 19.0383C50.1562 17.8783 49.6362 16.8783 48.5962 16.0383C47.5962 15.1983 46.2362 14.7783 44.5162 14.7783C42.7162 14.7783 41.0362 15.1183 39.4762 15.7983C37.9562 16.4383 36.6562 17.1383 35.5762 17.8983L31.9162 12.6783C33.8762 11.3983 35.8962 10.3783 37.9762 9.61826C40.0562 8.85826 42.2962 8.47826 44.6962 8.47826ZM72.6787 43.2183H64.9387V1.51826L72.6787 0.85826V24.7383L85.1587 13.2783L89.5387 18.7983L81.3787 25.9383L92.0587 43.2183H83.1187L75.7987 30.9183L72.6787 33.6783V43.2183Z" fill="url(#paint0_linear_12_53)"/>
<defs>
<linearGradient id="paint0_linear_12_53" x1="45.873" y1="-9.78174" x2="45.873" y2="62.2183" gradientUnits="userSpaceOnUse">
<stop stop-color="#F00000"/>
<stop offset="1" stop-color="#9109F7"/>
</linearGradient>
</defs>
</svg>