<svg xmlns="http://www.w3.org/2000/svg" width="42" height="47" viewBox="0 0 42 47" fill="none">
<path d="M34.8463 32.1484C34.5383 32.1484 34.2626 32.2632 34.0519 32.4928L29.7717 36.9856L28.0531 35.0179C27.8424 34.772 27.5343 34.6408 27.2263 34.6408C26.9507 34.6408 26.6913 34.7392 26.4967 34.9195C26.2697 35.1163 26.14 35.3951 26.1238 35.6902C26.1076 35.9853 26.2049 36.2805 26.3994 36.5101L29.7068 40.2814L35.6569 34.0505C35.8677 33.8373 35.9812 33.5586 35.965 33.247C35.965 32.9519 35.8353 32.6731 35.6245 32.46C35.4137 32.2632 35.1381 32.1484 34.8463 32.1484Z" fill="#D22238"/>
<path d="M31.15 24.7206C30.9068 24.7206 30.6798 24.737 30.4366 24.7534L30.2096 24.7698L29.4314 11.2914H23.076V8.42194C23.076 4.1751 19.6551 0.715332 15.456 0.715332C11.2569 0.715332 7.83597 4.1751 7.83597 8.42194V11.275H1.48055L0.0862525 35.477C-0.0272371 37.3135 0.605062 39.068 1.85345 40.3961C3.10183 41.7407 4.78796 42.4622 6.6038 42.4622H22.7355L22.8004 42.5442C24.8594 45.1021 27.9074 46.5614 31.1662 46.5614C37.1163 46.5614 41.9639 41.6587 41.9639 35.641C41.9639 29.6233 37.1001 24.7206 31.15 24.7206ZM10.0409 8.42194C10.0409 5.40488 12.4566 2.96172 15.4398 2.96172C18.4229 2.96172 20.8386 5.40488 20.8386 8.42194V11.275H10.0409V8.42194ZM6.58758 40.2158C5.38783 40.2158 4.26915 39.7239 3.4423 38.8384C2.61545 37.953 2.21013 36.8052 2.27498 35.5918L3.55579 13.505H7.81976V15.7842C7.81976 16.4073 8.32235 16.8992 8.92223 16.8992C9.5221 16.8992 10.0247 16.3909 10.0247 15.7842V13.5214H20.8224V15.8006C20.8224 16.4237 21.325 16.9156 21.9249 16.9156C22.5248 16.9156 23.0274 16.4073 23.0274 15.8006V13.5214H27.2913L27.9723 25.1961L27.7939 25.2453C23.3192 26.7046 20.3036 30.8859 20.3036 35.641C20.3036 37.1167 20.5954 38.5433 21.1467 39.8878L21.2764 40.2158H6.58758ZM31.15 44.315C26.4158 44.315 22.5734 40.4289 22.5734 35.641C22.5734 30.8531 26.4158 26.967 31.15 26.967C35.8841 26.967 39.7265 30.8531 39.7265 35.641C39.7265 40.4289 35.8679 44.315 31.15 44.315Z" fill="#D22238"/>
</svg>