<svg xmlns="http://www.w3.org/2000/svg" width="40" height="47" viewBox="0 0 40 47" fill="none">
<path d="M38.353 2.25013C37.2992 1.18433 35.8887 0.594034 34.3809 0.577637H9.1862C6.10577 0.577637 3.57658 3.11918 3.57658 6.25101V8.30063H1.35543C0.609639 8.30063 0.00976562 8.90732 0.00976562 9.66159C0.00976562 10.4159 0.609639 11.0225 1.35543 11.0225H3.57658V17.5158H1.35543C0.609639 17.5322 0.00976562 18.1388 0.00976562 18.8931C0.00976562 19.6474 0.609639 20.2541 1.35543 20.2541H3.57658V26.7473H1.35543C0.609639 26.7473 0.00976562 27.3704 0.00976562 28.1246C0.00976562 28.8789 0.609639 29.4856 1.35543 29.4856H3.57658V35.9788H1.35543C0.609639 35.9788 0.00976562 36.5855 0.00976562 37.3398C0.00976562 38.094 0.609639 38.7007 1.35543 38.7007H3.57658V40.7503C3.57658 43.8822 6.08956 46.4237 9.1862 46.4237H34.3809C37.4775 46.4237 39.9905 43.8822 39.9905 40.7503V6.25101C39.9905 4.74248 39.4068 3.31594 38.353 2.25013ZM6.28411 38.7171H8.48905C9.23484 38.7171 9.83471 38.1104 9.83471 37.3562C9.83471 36.6019 9.23484 35.9952 8.48905 35.9952H6.28411V29.502H8.48905C9.23484 29.502 9.83471 28.8953 9.83471 28.141C9.83471 27.3868 9.23484 26.7801 8.48905 26.7801H6.28411V20.2869H8.48905C9.23484 20.2869 9.83471 19.6802 9.83471 18.9259C9.83471 18.1716 9.23484 17.565 8.48905 17.565H6.28411V11.0225H8.48905C9.23484 11.0225 9.83471 10.4159 9.83471 9.66159C9.83471 8.90732 9.23484 8.30063 8.48905 8.30063H6.28411V6.25101C6.28411 4.6277 7.59735 3.29954 9.20241 3.29954H34.3809C35.9859 3.29954 37.283 4.6277 37.2992 6.25101V40.7503C37.2992 42.3736 35.9859 43.6854 34.3809 43.7018H9.20241C7.59735 43.7018 6.30033 42.3736 6.28411 40.7503V38.7171Z" fill="#662C91"/>
<path d="M21.7832 23.1893C24.6367 23.1893 26.9551 20.8446 26.9551 17.9587C26.9551 15.0728 24.6367 12.728 21.7832 12.728C18.9298 12.728 16.6113 15.0728 16.6113 17.9587C16.6113 20.8446 18.9298 23.1893 21.7832 23.1893ZM21.7832 14.876C23.4531 14.876 24.815 16.2534 24.815 17.9423C24.815 19.6312 23.4531 21.0085 21.7832 21.0085C20.1133 21.0085 18.7514 19.6312 18.7514 17.9423C18.7514 16.2534 20.1133 14.876 21.7832 14.876Z" fill="#662C91"/>
<path d="M14.9421 34.2899H28.6257C29.2094 34.2899 29.6957 33.8144 29.6957 33.2077C29.6957 28.5674 26.2262 24.9272 21.7839 24.9272C17.3416 24.9272 13.8721 28.5674 13.8721 33.2077C13.8721 33.798 14.3585 34.2899 14.9421 34.2899ZM21.7839 27.0753C24.7184 27.0753 27.0206 29.1741 27.4746 32.1255H16.0932C16.5472 29.1905 18.8332 27.0753 21.7839 27.0753Z" fill="#662C91"/>
</svg>