<svg xmlns="http://www.w3.org/2000/svg" width="50" height="512" viewBox="0 0 50 512" fill="none">
<path d="M21.77 487.32L28.84 485.99L28.84 502.23L49 502.23L49 511.26L1.4 511.26L1.4 484.31L8.54 482.91L8.54 502.23L21.77 502.23L21.77 487.32ZM49 416.006L49 449.326L1.4 449.326L1.4 420.906L8.54 419.506L8.54 440.296L21.35 440.296L21.35 424.756L28.56 423.286L28.56 440.296L41.93 440.296L41.93 417.476L49 416.006ZM1.39999 369.103L1.39999 361.403L48.44 342.923L49.7 352.023L37.8 356.293L37.8 374.353L49 378.553L49 387.653L1.39999 369.103ZM30.45 359.093L13.86 365.463L30.45 371.693L30.45 359.093ZM1.39999 276.76L8.53999 275.29L8.53999 291.6L49 291.6L49 300.77L8.53999 300.77L8.53999 315.26L1.39999 315.26L1.39999 276.76ZM1.39999 233.933L31.01 233.933C34.9767 233.933 37.87 232.953 39.69 230.993C41.4633 229.033 42.35 226.536 42.35 223.503C42.35 220.423 41.4167 217.926 39.55 216.013C37.6833 214.053 34.8367 213.073 31.01 213.073L1.39999 213.073L1.39999 203.903L31.71 203.903C35.1167 203.903 38.1967 204.719 40.95 206.353C43.6567 207.939 45.8033 210.203 47.39 213.143C48.93 216.036 49.7233 219.489 49.77 223.503C49.77 227.469 49 230.923 47.46 233.863C45.8733 236.803 43.7033 239.066 40.95 240.653C38.1967 242.239 35.1167 243.033 31.71 243.033L1.39999 243.103L1.39999 233.933ZM1.39998 166.455L1.39998 151.545C1.39998 148.092 1.93665 144.942 3.00998 142.095C4.03665 139.249 5.62331 136.985 7.76998 135.305C9.91665 133.579 12.67 132.715 16.03 132.715C18.97 132.715 21.5133 133.485 23.66 135.025C25.76 136.519 27.3933 138.455 28.56 140.835L49 129.145L49 138.805L30.94 148.885L30.94 157.425L49 157.425L49 166.455L1.39998 166.455ZM8.95998 151.825L8.95998 157.425L23.52 157.425L23.52 151.685C23.52 148.979 22.9833 146.739 21.91 144.965C20.79 143.192 18.97 142.305 16.45 142.305C13.79 142.305 11.8766 143.145 10.71 144.825C9.54331 146.505 8.95998 148.839 8.95998 151.825ZM49 62.9302L49 96.2502L1.39998 96.2502L1.39998 67.8302L8.53998 66.4302L8.53998 87.2202L21.35 87.2202L21.35 71.6802L28.56 70.2102L28.56 87.2202L41.93 87.2202L41.93 64.4002L49 62.9302ZM45.85 31.9864L38.5 29.9564C38.9666 28.9764 39.48 27.833 40.04 26.5264C40.5533 25.173 40.9966 23.7497 41.37 22.2564C41.6966 20.763 41.86 19.363 41.86 18.0564C41.86 12.363 40.1333 9.51636 36.68 9.51636C35.6066 9.51636 34.65 9.98303 33.81 10.9164C32.97 11.803 32.1533 12.9464 31.36 14.3464C30.52 15.7464 29.68 17.1697 28.84 18.6164C27.4866 20.8564 26.0633 23.073 24.57 25.2664C23.0766 27.4597 21.3966 29.2797 19.53 30.7264C17.6166 32.1264 15.4466 32.8264 13.02 32.8264C10.5933 32.8264 8.42331 32.1964 6.50998 30.9364C4.59664 29.6297 3.07998 27.763 1.95997 25.3364C0.839975 22.863 0.279975 19.8997 0.279975 16.4464C0.279975 14.0664 0.653309 11.6864 1.39998 9.30636C2.14664 6.92636 2.96331 4.82636 3.84997 3.00636L11.13 6.01636C10.43 7.46303 9.77664 9.02636 9.16998 10.7064C8.51664 12.3864 8.18998 14.253 8.18998 16.3064C8.18998 18.313 8.58664 20.0164 9.37998 21.4164C10.1733 22.7697 11.3866 23.4464 13.02 23.4464C14.1866 23.4464 15.2133 23.0264 16.1 22.1864C16.9866 21.3464 17.8266 20.2497 18.62 18.8964C19.3666 17.4964 20.2066 16.0264 21.14 14.4864C22.1666 12.8064 23.1933 11.1264 24.22 9.44636C25.2 7.7197 26.2966 6.15636 27.51 4.75636C28.6766 3.35636 30.0066 2.23636 31.5 1.39636C32.9933 0.556362 34.7666 0.136362 36.82 0.136362C40.6 0.136362 43.7266 1.67636 46.2 4.75636C48.6733 7.7897 49.91 12.1764 49.91 17.9164C49.91 19.223 49.7 20.7864 49.28 22.6064C48.86 24.4264 48.3466 26.1997 47.74 27.9264C47.0866 29.6064 46.4566 30.9597 45.85 31.9864Z" fill="#F5F5F5"/>
</svg>