<svg xmlns="http://www.w3.org/2000/svg" width="50" height="43" viewBox="0 0 50 43" fill="none">
<path d="M46.6014 8.47583H38.0333V6.27959C38.0333 3.03752 35.4186 0.393066 32.2129 0.393066H17.8245C14.6188 0.393066 12.0041 3.03752 12.0041 6.27959V8.47583H3.43602C1.98832 8.47583 0.821289 9.67106 0.821289 11.1203V27.3008C0.821289 28.3615 1.4565 29.3177 2.41672 29.736V40.2391C2.41672 41.7033 3.59853 42.8836 5.03146 42.8836H45.006C46.4537 42.8836 47.6207 41.6884 47.6207 40.2391V29.736C48.5809 29.3326 49.2161 28.3615 49.2161 27.3008V11.1352C49.2309 9.67106 48.0491 8.47583 46.6014 8.47583ZM14.0427 6.36923C14.0427 4.18793 15.7859 2.42496 17.9427 2.42496H32.08C34.2368 2.42496 35.9799 4.18793 35.9799 6.36923V8.47583H14.0427V6.36923ZM45.5821 40.2391C45.5821 40.5678 45.3162 40.8218 45.006 40.8218H5.03146C4.70647 40.8218 4.45533 40.5529 4.45533 40.2391V29.9452H9.61095V32.1414C9.61095 32.7092 10.0689 33.1723 10.6303 33.1723H13.8211C14.3825 33.1723 14.8404 32.7092 14.8404 32.1414V29.9452H35.1822V32.1414C35.1822 32.7092 35.6402 33.1723 36.2015 33.1723H39.3924C39.9538 33.1723 40.4117 32.7092 40.4117 32.1414V29.9452H45.5673V40.2391H45.5821ZM11.3393 31.3944V27.1065C11.3393 26.9272 11.4427 26.7629 11.62 26.6434C11.7825 26.5238 12.0336 26.4641 12.2257 26.4641C12.7132 26.4641 13.112 26.7629 13.112 27.1215V31.4094H11.3393V31.3944ZM36.9254 31.3944V27.1065C36.9254 26.9272 37.0288 26.7629 37.2061 26.6434C37.3686 26.5238 37.6197 26.4641 37.8117 26.4641C38.2992 26.4641 38.6981 26.7629 38.6981 27.1215V31.4094H36.9254V31.3944ZM47.1775 27.3008C47.1775 27.6294 46.9116 27.8834 46.6014 27.8834H40.4265V27.3008C40.4265 25.8515 39.2447 24.6563 37.8117 24.6563C36.364 24.6563 35.197 25.8515 35.197 27.3008V27.8834H14.8404V27.3008C14.8404 25.8366 13.6586 24.6563 12.2257 24.6563C10.7927 24.6712 9.61095 25.8515 9.61095 27.3008V27.8834H3.43602C3.11103 27.8834 2.8599 27.6145 2.8599 27.3008V11.1352C2.8599 10.8065 3.1258 10.5525 3.43602 10.5525H46.6162C46.9412 10.5525 47.1923 10.8215 47.1923 11.1352V27.3008H47.1775Z" fill="#17A398"/>
</svg>