<svg xmlns="http://www.w3.org/2000/svg" width="50" height="486" viewBox="0 0 50 486" fill="none">
<path d="M4.38828 1.02242L11.7383 3.05242C11.2716 4.03242 10.7583 5.17576 10.1983 6.48242C9.68495 7.83576 9.24162 9.25909 8.86828 10.7524C8.54162 12.2458 8.37828 13.6458 8.37828 14.9524C8.37828 20.6458 10.1049 23.4924 13.5583 23.4924C14.6316 23.4924 15.5883 23.0258 16.4283 22.0924C17.2683 21.2058 18.0849 20.0624 18.8783 18.6624C19.7183 17.2624 20.5583 15.8391 21.3983 14.3924C22.7516 12.1524 24.1749 9.93576 25.6683 7.74242C27.1616 5.54909 28.8416 3.72909 30.7083 2.28242C32.6216 0.882423 34.7916 0.182422 37.2183 0.182422C39.6449 0.182422 41.815 0.812422 43.7283 2.07242C45.6416 3.37909 47.1583 5.24576 48.2783 7.67242C49.3983 10.1458 49.9583 13.1091 49.9583 16.5624C49.9583 18.9424 49.585 21.3224 48.8383 23.7024C48.0916 26.0824 47.275 28.1824 46.3883 30.0024L39.1083 26.9924C39.8083 25.5458 40.4616 23.9824 41.0683 22.3024C41.7216 20.6224 42.0483 18.7558 42.0483 16.7024C42.0483 14.6958 41.6516 12.9924 40.8583 11.5924C40.065 10.2391 38.8516 9.56242 37.2183 9.56242C36.0516 9.56242 35.0249 9.98242 34.1383 10.8224C33.2516 11.6624 32.4116 12.7591 31.6183 14.1124C30.8716 15.5124 30.0316 16.9824 29.0983 18.5224C28.0716 20.2024 27.0449 21.8824 26.0183 23.5624C25.0383 25.2891 23.9416 26.8524 22.7283 28.2524C21.5616 29.6524 20.2316 30.7724 18.7383 31.6124C17.2449 32.4524 15.4716 32.8724 13.4183 32.8724C9.63828 32.8724 6.51162 31.3324 4.03828 28.2524C1.56495 25.2191 0.328282 20.8324 0.328281 15.0924C0.328281 13.7858 0.538281 12.2224 0.958281 10.4024C1.37828 8.58242 1.89161 6.80909 2.49828 5.08242C3.15161 3.40242 3.78161 2.04909 4.38828 1.02242ZM1.23828 100.166L1.23828 66.8465L48.8383 66.8465L48.8383 95.2665L41.6983 96.6665L41.6983 75.8765L28.8883 75.8765L28.8883 91.4165L21.6783 92.8865L21.6783 75.8765L8.30828 75.8765L8.30828 98.6965L1.23828 100.166ZM48.8383 133.77L48.8383 148.68C48.8383 152.134 48.3016 155.284 47.2283 158.13C46.2016 160.977 44.615 163.24 42.4683 164.92C40.3216 166.647 37.5683 167.51 34.2083 167.51C31.2683 167.51 28.725 166.74 26.5783 165.2C24.4783 163.707 22.845 161.77 21.6783 159.39L1.23828 171.08L1.23828 161.42L19.2983 151.34L19.2983 142.8L1.23828 142.8L1.23828 133.77L48.8383 133.77ZM41.2783 148.4L41.2783 142.8L26.7183 142.8L26.7183 148.54C26.7183 151.247 27.255 153.487 28.3283 155.26C29.4483 157.034 31.2683 157.92 33.7883 157.92C36.4483 157.92 38.3616 157.08 39.5283 155.4C40.695 153.72 41.2783 151.387 41.2783 148.4ZM49.5383 207.825L13.6983 221.265L48.8383 234.355L48.8383 243.455L1.23828 224.905L1.23828 217.205L48.2783 198.725L49.5383 207.825ZM1.23828 285.398L1.23828 276.368L48.8383 276.368L48.8383 285.398L1.23828 285.398ZM46.7383 355.596L40.2283 352.796C40.6483 351.443 40.9983 350.253 41.2783 349.226C41.5583 348.246 41.7683 347.266 41.9083 346.286C42.095 345.306 42.1883 344.116 42.1883 342.716C42.1883 340.196 41.4883 337.933 40.0883 335.926C38.6883 333.966 36.705 332.403 34.1383 331.236C31.5716 330.069 28.4916 329.486 24.8983 329.486C21.8183 329.486 18.995 329.976 16.4283 330.956C13.8616 331.936 11.785 333.359 10.1983 335.226C8.65829 337.139 7.88829 339.449 7.88829 342.156C7.88829 344.163 8.09829 346.029 8.51829 347.756C8.93829 349.529 9.45162 351.139 10.0583 352.586L3.33829 356.016C2.73162 354.803 2.19495 353.403 1.72829 351.816C1.26162 350.229 0.911619 348.619 0.678285 346.986C0.398285 345.399 0.258285 343.953 0.258285 342.646C0.258285 337.699 1.35495 333.546 3.54829 330.186C5.74162 326.826 8.68162 324.283 12.3683 322.556C16.1016 320.876 20.255 320.036 24.8283 320.036C29.7283 320.036 34.045 320.969 37.7783 322.836C41.5583 324.749 44.4983 327.433 46.5983 330.886C48.745 334.339 49.8183 338.376 49.8183 342.996C49.8183 343.929 49.7016 345.119 49.4683 346.566C49.2816 348.013 48.955 349.529 48.4883 351.116C48.0683 352.749 47.485 354.243 46.7383 355.596ZM1.23829 422.618L1.23829 389.298L48.8383 389.298L48.8383 417.718L41.6983 419.118L41.6983 398.328L28.8883 398.328L28.8883 413.868L21.6783 415.338L21.6783 398.328L8.30829 398.328L8.30829 421.148L1.23829 422.618ZM4.38829 453.561L11.7383 455.591C11.2716 456.571 10.7583 457.715 10.1983 459.021C9.68495 460.375 9.24162 461.798 8.86829 463.291C8.54162 464.785 8.37829 466.185 8.37829 467.491C8.37829 473.185 10.105 476.031 13.5583 476.031C14.6316 476.031 15.5883 475.565 16.4283 474.631C17.2683 473.745 18.085 472.601 18.8783 471.201C19.7183 469.801 20.5583 468.378 21.3983 466.931C22.7516 464.691 24.175 462.475 25.6683 460.281C27.1616 458.088 28.8416 456.268 30.7083 454.821C32.6216 453.421 34.7916 452.721 37.2183 452.721C39.645 452.721 41.815 453.351 43.7283 454.611C45.6416 455.918 47.1583 457.785 48.2783 460.211C49.3983 462.685 49.9583 465.648 49.9583 469.101C49.9583 471.481 49.585 473.861 48.8383 476.241C48.0916 478.621 47.275 480.721 46.3883 482.541L39.1083 479.531C39.8083 478.085 40.4616 476.521 41.0683 474.841C41.7216 473.161 42.0483 471.295 42.0483 469.241C42.0483 467.235 41.6516 465.531 40.8583 464.131C40.065 462.778 38.8516 462.101 37.2183 462.101C36.0516 462.101 35.025 462.521 34.1383 463.361C33.2516 464.201 32.4116 465.298 31.6183 466.651C30.8716 468.051 30.0316 469.521 29.0983 471.061C28.0716 472.741 27.045 474.421 26.0183 476.101C25.0383 477.828 23.9416 479.391 22.7283 480.791C21.5616 482.191 20.2316 483.311 18.7383 484.151C17.245 484.991 15.4716 485.411 13.4183 485.411C9.63829 485.411 6.51162 483.871 4.03829 480.791C1.56495 477.758 0.328287 473.371 0.328287 467.631C0.328287 466.325 0.538287 464.761 0.958287 462.941C1.37829 461.121 1.89162 459.348 2.49829 457.621C3.15162 455.941 3.78162 454.588 4.38829 453.561Z" fill="#F5F5F5"/>
</svg>