<svg xmlns="http://www.w3.org/2000/svg" width="18" height="18" viewBox="0 0 18 18" fill="none">
<path d="M9.72076 8.54054V5.10599C9.72076 4.70717 9.39933 4.38574 9.00052 4.38574C8.60171 4.38574 8.28027 4.70717 8.28027 5.10599V8.89769C8.28027 9.12388 8.38742 9.33817 8.56599 9.47508L11.0958 11.3739C11.2208 11.4691 11.3696 11.5168 11.5303 11.5168C11.7624 11.5168 11.9708 11.4096 12.1077 11.2251C12.2208 11.0703 12.2744 10.8799 12.2446 10.6894C12.2148 10.4989 12.1196 10.3322 11.9648 10.2132L9.72076 8.54054Z" fill="white"/>
<path d="M9.00008 0.599609C4.45242 0.599609 0.75 4.30203 0.75 8.84969C0.75 13.3973 4.45242 17.0998 9.00008 17.0998C13.5477 17.0998 17.2502 13.3973 17.2502 8.84969C17.2502 4.30203 13.5477 0.599609 9.00008 0.599609ZM15.8097 8.84969C15.8097 12.6057 12.7561 15.6593 9.00008 15.6593C5.24409 15.6593 2.19049 12.6057 2.19049 8.84969C2.19049 5.0937 5.24409 2.0401 9.00008 2.0401C12.7561 2.0401 15.8097 5.0937 15.8097 8.84969Z" fill="white"/>
</svg>